{
 "cells": [
  {
   "cell_type": "code",
   "execution_count": 1,
   "metadata": {},
   "outputs": [
    {
     "name": "stderr",
     "output_type": "stream",
     "text": [
      "ffmpeg version 7.1 Copyright (c) 2000-2024 the FFmpeg developers\n",
      "  built with clang version 17.0.6\n",
      "  configuration: --prefix=/opt/homebrew/Caskroom/miniconda/base --cc=arm64-apple-darwin20.0.0-clang --cxx=arm64-apple-darwin20.0.0-clang++ --nm=arm64-apple-darwin20.0.0-nm --ar=arm64-apple-darwin20.0.0-ar --disable-doc --enable-openssl --enable-demuxer=dash --enable-hardcoded-tables --enable-libfreetype --enable-libharfbuzz --enable-libfontconfig --enable-libopenh264 --enable-libdav1d --enable-cross-compile --arch=arm64 --target-os=darwin --cross-prefix=arm64-apple-darwin20.0.0- --host-cc=/Users/runner/miniforge3/conda-bld/ffmpeg_1728332276747/_build_env/bin/x86_64-apple-darwin13.4.0-clang --enable-neon --disable-gnutls --enable-libmp3lame --enable-libvpx --enable-libass --enable-pthreads --enable-libopenvino --enable-gpl --enable-libx264 --enable-libx265 --enable-libaom --enable-libsvtav1 --enable-libxml2 --enable-pic --enable-shared --disable-static --enable-version3 --enable-zlib --enable-libopus --pkg-config=/Users/runner/miniforge3/conda-bld/ffmpeg_1728332276747/_build_env/bin/pkg-config\n",
      "  libavutil      59. 39.100 / 59. 39.100\n",
      "  libavcodec     61. 19.100 / 61. 19.100\n",
      "  libavformat    61.  7.100 / 61.  7.100\n",
      "  libavdevice    61.  3.100 / 61.  3.100\n",
      "  libavfilter    10.  4.100 / 10.  4.100\n",
      "  libswscale      8.  3.100 /  8.  3.100\n",
      "  libswresample   5.  3.100 /  5.  3.100\n",
      "  libpostproc    58.  3.100 / 58.  3.100\n",
      "Input #0, flac, from '/Users/jon/NTNU Dropbox/WiseSync/NAS/Datasets/ms_swift_taiwan_asr/RLHF/Audio/jin-jin-style/error000.flac':\n",
      "  Metadata:\n",
      "    major_brand     : mp42\n",
      "    minor_version   : 1\n",
      "    compatible_brands: isommp41mp42\n",
      "    encoder         : Lavf61.7.100\n",
      "  Duration: 00:00:30.10, start: 0.000000, bitrate: 288 kb/s\n",
      "  Stream #0:0: Audio: flac, 16000 Hz, mono, s32 (24 bit)\n",
      "Stream mapping:\n",
      "  Stream #0:0 -> #0:0 (flac (native) -> pcm_s16le (native))\n",
      "Press [q] to stop, [?] for help\n",
      "Output #0, wav, to '/Users/jon/NTNU Dropbox/WiseSync/NAS/Datasets/ms_swift_taiwan_asr/RLHF/Audio/jin-jin-style/wave/error000.wav':\n",
      "  Metadata:\n",
      "    major_brand     : mp42\n",
      "    minor_version   : 1\n",
      "    compatible_brands: isommp41mp42\n",
      "    ISFT            : Lavf61.7.100\n",
      "  Stream #0:0: Audio: pcm_s16le ([1][0][0][0] / 0x0001), 16000 Hz, mono, s16, 256 kb/s\n",
      "      Metadata:\n",
      "        encoder         : Lavc61.19.100 pcm_s16le\n",
      "[out#0/wav @ 0x1266048b0] video:0KiB audio:940KiB subtitle:0KiB other streams:0KiB global headers:0KiB muxing overhead: 0.008099%\n",
      "size=     941KiB time=00:00:30.09 bitrate= 256.0kbits/s speed=3.72e+03x    \n",
      "ffmpeg version 7.1 Copyright (c) 2000-2024 the FFmpeg developers\n",
      "  built with clang version 17.0.6\n",
      "  configuration: --prefix=/opt/homebrew/Caskroom/miniconda/base --cc=arm64-apple-darwin20.0.0-clang --cxx=arm64-apple-darwin20.0.0-clang++ --nm=arm64-apple-darwin20.0.0-nm --ar=arm64-apple-darwin20.0.0-ar --disable-doc --enable-openssl --enable-demuxer=dash --enable-hardcoded-tables --enable-libfreetype --enable-libharfbuzz --enable-libfontconfig --enable-libopenh264 --enable-libdav1d --enable-cross-compile --arch=arm64 --target-os=darwin --cross-prefix=arm64-apple-darwin20.0.0- --host-cc=/Users/runner/miniforge3/conda-bld/ffmpeg_1728332276747/_build_env/bin/x86_64-apple-darwin13.4.0-clang --enable-neon --disable-gnutls --enable-libmp3lame --enable-libvpx --enable-libass --enable-pthreads --enable-libopenvino --enable-gpl --enable-libx264 --enable-libx265 --enable-libaom --enable-libsvtav1 --enable-libxml2 --enable-pic --enable-shared --disable-static --enable-version3 --enable-zlib --enable-libopus --pkg-config=/Users/runner/miniforge3/conda-bld/ffmpeg_1728332276747/_build_env/bin/pkg-config\n",
      "  libavutil      59. 39.100 / 59. 39.100\n",
      "  libavcodec     61. 19.100 / 61. 19.100\n",
      "  libavformat    61.  7.100 / 61.  7.100\n",
      "  libavdevice    61.  3.100 / 61.  3.100\n",
      "  libavfilter    10.  4.100 / 10.  4.100\n",
      "  libswscale      8.  3.100 /  8.  3.100\n",
      "  libswresample   5.  3.100 /  5.  3.100\n",
      "  libpostproc    58.  3.100 / 58.  3.100\n",
      "Input #0, flac, from '/Users/jon/NTNU Dropbox/WiseSync/NAS/Datasets/ms_swift_taiwan_asr/RLHF/Audio/jin-jin-style/error001.flac':\n",
      "  Metadata:\n",
      "    major_brand     : mp42\n",
      "    minor_version   : 1\n",
      "    compatible_brands: isommp41mp42\n",
      "    encoder         : Lavf61.7.100\n",
      "  Duration: 00:00:29.95, start: 0.000000, bitrate: 302 kb/s\n",
      "  Stream #0:0: Audio: flac, 16000 Hz, mono, s32 (24 bit)\n",
      "Stream mapping:\n",
      "  Stream #0:0 -> #0:0 (flac (native) -> pcm_s16le (native))\n",
      "Press [q] to stop, [?] for help\n",
      "Output #0, wav, to '/Users/jon/NTNU Dropbox/WiseSync/NAS/Datasets/ms_swift_taiwan_asr/RLHF/Audio/jin-jin-style/wave/error001.wav':\n",
      "  Metadata:\n",
      "    major_brand     : mp42\n",
      "    minor_version   : 1\n",
      "    compatible_brands: isommp41mp42\n",
      "    ISFT            : Lavf61.7.100\n",
      "  Stream #0:0: Audio: pcm_s16le ([1][0][0][0] / 0x0001), 16000 Hz, mono, s16, 256 kb/s\n",
      "      Metadata:\n",
      "        encoder         : Lavc61.19.100 pcm_s16le\n",
      "[out#0/wav @ 0x13f61bf40] video:0KiB audio:936KiB subtitle:0KiB other streams:0KiB global headers:0KiB muxing overhead: 0.008138%\n",
      "size=     936KiB time=00:00:29.95 bitrate= 256.0kbits/s speed=4.12e+03x    \n",
      "ffmpeg version 7.1 Copyright (c) 2000-2024 the FFmpeg developers\n",
      "  built with clang version 17.0.6\n",
      "  configuration: --prefix=/opt/homebrew/Caskroom/miniconda/base --cc=arm64-apple-darwin20.0.0-clang --cxx=arm64-apple-darwin20.0.0-clang++ --nm=arm64-apple-darwin20.0.0-nm --ar=arm64-apple-darwin20.0.0-ar --disable-doc --enable-openssl --enable-demuxer=dash --enable-hardcoded-tables --enable-libfreetype --enable-libharfbuzz --enable-libfontconfig --enable-libopenh264 --enable-libdav1d --enable-cross-compile --arch=arm64 --target-os=darwin --cross-prefix=arm64-apple-darwin20.0.0- --host-cc=/Users/runner/miniforge3/conda-bld/ffmpeg_1728332276747/_build_env/bin/x86_64-apple-darwin13.4.0-clang --enable-neon --disable-gnutls --enable-libmp3lame --enable-libvpx --enable-libass --enable-pthreads --enable-libopenvino --enable-gpl --enable-libx264 --enable-libx265 --enable-libaom --enable-libsvtav1 --enable-libxml2 --enable-pic --enable-shared --disable-static --enable-version3 --enable-zlib --enable-libopus --pkg-config=/Users/runner/miniforge3/conda-bld/ffmpeg_1728332276747/_build_env/bin/pkg-config\n",
      "  libavutil      59. 39.100 / 59. 39.100\n",
      "  libavcodec     61. 19.100 / 61. 19.100\n",
      "  libavformat    61.  7.100 / 61.  7.100\n",
      "  libavdevice    61.  3.100 / 61.  3.100\n",
      "  libavfilter    10.  4.100 / 10.  4.100\n",
      "  libswscale      8.  3.100 /  8.  3.100\n",
      "  libswresample   5.  3.100 /  5.  3.100\n",
      "  libpostproc    58.  3.100 / 58.  3.100\n",
      "Input #0, flac, from '/Users/jon/NTNU Dropbox/WiseSync/NAS/Datasets/ms_swift_taiwan_asr/RLHF/Audio/jin-jin-style/error002.flac':\n",
      "  Metadata:\n",
      "    major_brand     : mp42\n",
      "    minor_version   : 1\n",
      "    compatible_brands: isommp41mp42\n",
      "    encoder         : Lavf61.7.100\n",
      "  Duration: 00:00:30.02, start: 0.000000, bitrate: 296 kb/s\n",
      "  Stream #0:0: Audio: flac, 16000 Hz, mono, s32 (24 bit)\n",
      "Stream mapping:\n",
      "  Stream #0:0 -> #0:0 (flac (native) -> pcm_s16le (native))\n",
      "Press [q] to stop, [?] for help\n",
      "Output #0, wav, to '/Users/jon/NTNU Dropbox/WiseSync/NAS/Datasets/ms_swift_taiwan_asr/RLHF/Audio/jin-jin-style/wave/error002.wav':\n",
      "  Metadata:\n",
      "    major_brand     : mp42\n",
      "    minor_version   : 1\n",
      "    compatible_brands: isommp41mp42\n",
      "    ISFT            : Lavf61.7.100\n",
      "  Stream #0:0: Audio: pcm_s16le ([1][0][0][0] / 0x0001), 16000 Hz, mono, s16, 256 kb/s\n",
      "      Metadata:\n",
      "        encoder         : Lavc61.19.100 pcm_s16le\n",
      "[out#0/wav @ 0x149f04e30] video:0KiB audio:938KiB subtitle:0KiB other streams:0KiB global headers:0KiB muxing overhead: 0.008119%\n",
      "size=     938KiB time=00:00:30.02 bitrate= 256.0kbits/s speed=4.09e+03x    \n",
      "ffmpeg version 7.1 Copyright (c) 2000-2024 the FFmpeg developers\n",
      "  built with clang version 17.0.6\n",
      "  configuration: --prefix=/opt/homebrew/Caskroom/miniconda/base --cc=arm64-apple-darwin20.0.0-clang --cxx=arm64-apple-darwin20.0.0-clang++ --nm=arm64-apple-darwin20.0.0-nm --ar=arm64-apple-darwin20.0.0-ar --disable-doc --enable-openssl --enable-demuxer=dash --enable-hardcoded-tables --enable-libfreetype --enable-libharfbuzz --enable-libfontconfig --enable-libopenh264 --enable-libdav1d --enable-cross-compile --arch=arm64 --target-os=darwin --cross-prefix=arm64-apple-darwin20.0.0- --host-cc=/Users/runner/miniforge3/conda-bld/ffmpeg_1728332276747/_build_env/bin/x86_64-apple-darwin13.4.0-clang --enable-neon --disable-gnutls --enable-libmp3lame --enable-libvpx --enable-libass --enable-pthreads --enable-libopenvino --enable-gpl --enable-libx264 --enable-libx265 --enable-libaom --enable-libsvtav1 --enable-libxml2 --enable-pic --enable-shared --disable-static --enable-version3 --enable-zlib --enable-libopus --pkg-config=/Users/runner/miniforge3/conda-bld/ffmpeg_1728332276747/_build_env/bin/pkg-config\n",
      "  libavutil      59. 39.100 / 59. 39.100\n",
      "  libavcodec     61. 19.100 / 61. 19.100\n",
      "  libavformat    61.  7.100 / 61.  7.100\n",
      "  libavdevice    61.  3.100 / 61.  3.100\n",
      "  libavfilter    10.  4.100 / 10.  4.100\n",
      "  libswscale      8.  3.100 /  8.  3.100\n",
      "  libswresample   5.  3.100 /  5.  3.100\n",
      "  libpostproc    58.  3.100 / 58.  3.100\n",
      "Input #0, flac, from '/Users/jon/NTNU Dropbox/WiseSync/NAS/Datasets/ms_swift_taiwan_asr/RLHF/Audio/jin-jin-style/error003.flac':\n",
      "  Metadata:\n",
      "    major_brand     : mp42\n",
      "    minor_version   : 1\n",
      "    compatible_brands: isommp41mp42\n",
      "    encoder         : Lavf61.7.100\n",
      "  Duration: 00:00:29.95, start: 0.000000, bitrate: 298 kb/s\n",
      "  Stream #0:0: Audio: flac, 16000 Hz, mono, s32 (24 bit)\n",
      "Stream mapping:\n",
      "  Stream #0:0 -> #0:0 (flac (native) -> pcm_s16le (native))\n",
      "Press [q] to stop, [?] for help\n",
      "Output #0, wav, to '/Users/jon/NTNU Dropbox/WiseSync/NAS/Datasets/ms_swift_taiwan_asr/RLHF/Audio/jin-jin-style/wave/error003.wav':\n",
      "  Metadata:\n",
      "    major_brand     : mp42\n",
      "    minor_version   : 1\n",
      "    compatible_brands: isommp41mp42\n",
      "    ISFT            : Lavf61.7.100\n",
      "  Stream #0:0: Audio: pcm_s16le ([1][0][0][0] / 0x0001), 16000 Hz, mono, s16, 256 kb/s\n",
      "      Metadata:\n",
      "        encoder         : Lavc61.19.100 pcm_s16le\n",
      "[out#0/wav @ 0x13c61bf40] video:0KiB audio:936KiB subtitle:0KiB other streams:0KiB global headers:0KiB muxing overhead: 0.008138%\n",
      "size=     936KiB time=00:00:29.95 bitrate= 256.0kbits/s speed=4.95e+03x    \n",
      "ffmpeg version 7.1 Copyright (c) 2000-2024 the FFmpeg developers\n",
      "  built with clang version 17.0.6\n",
      "  configuration: --prefix=/opt/homebrew/Caskroom/miniconda/base --cc=arm64-apple-darwin20.0.0-clang --cxx=arm64-apple-darwin20.0.0-clang++ --nm=arm64-apple-darwin20.0.0-nm --ar=arm64-apple-darwin20.0.0-ar --disable-doc --enable-openssl --enable-demuxer=dash --enable-hardcoded-tables --enable-libfreetype --enable-libharfbuzz --enable-libfontconfig --enable-libopenh264 --enable-libdav1d --enable-cross-compile --arch=arm64 --target-os=darwin --cross-prefix=arm64-apple-darwin20.0.0- --host-cc=/Users/runner/miniforge3/conda-bld/ffmpeg_1728332276747/_build_env/bin/x86_64-apple-darwin13.4.0-clang --enable-neon --disable-gnutls --enable-libmp3lame --enable-libvpx --enable-libass --enable-pthreads --enable-libopenvino --enable-gpl --enable-libx264 --enable-libx265 --enable-libaom --enable-libsvtav1 --enable-libxml2 --enable-pic --enable-shared --disable-static --enable-version3 --enable-zlib --enable-libopus --pkg-config=/Users/runner/miniforge3/conda-bld/ffmpeg_1728332276747/_build_env/bin/pkg-config\n",
      "  libavutil      59. 39.100 / 59. 39.100\n",
      "  libavcodec     61. 19.100 / 61. 19.100\n",
      "  libavformat    61.  7.100 / 61.  7.100\n",
      "  libavdevice    61.  3.100 / 61.  3.100\n",
      "  libavfilter    10.  4.100 / 10.  4.100\n",
      "  libswscale      8.  3.100 /  8.  3.100\n",
      "  libswresample   5.  3.100 /  5.  3.100\n",
      "  libpostproc    58.  3.100 / 58.  3.100\n",
      "Input #0, flac, from '/Users/jon/NTNU Dropbox/WiseSync/NAS/Datasets/ms_swift_taiwan_asr/RLHF/Audio/jin-jin-style/error004.flac':\n",
      "  Metadata:\n",
      "    major_brand     : mp42\n",
      "    minor_version   : 1\n",
      "    compatible_brands: isommp41mp42\n",
      "    encoder         : Lavf61.7.100\n",
      "  Duration: 00:00:30.02, start: 0.000000, bitrate: 291 kb/s\n",
      "  Stream #0:0: Audio: flac, 16000 Hz, mono, s32 (24 bit)\n",
      "Stream mapping:\n",
      "  Stream #0:0 -> #0:0 (flac (native) -> pcm_s16le (native))\n",
      "Press [q] to stop, [?] for help\n",
      "Output #0, wav, to '/Users/jon/NTNU Dropbox/WiseSync/NAS/Datasets/ms_swift_taiwan_asr/RLHF/Audio/jin-jin-style/wave/error004.wav':\n",
      "  Metadata:\n",
      "    major_brand     : mp42\n",
      "    minor_version   : 1\n",
      "    compatible_brands: isommp41mp42\n",
      "    ISFT            : Lavf61.7.100\n",
      "  Stream #0:0: Audio: pcm_s16le ([1][0][0][0] / 0x0001), 16000 Hz, mono, s16, 256 kb/s\n",
      "      Metadata:\n",
      "        encoder         : Lavc61.19.100 pcm_s16le\n",
      "[out#0/wav @ 0x154004240] video:0KiB audio:938KiB subtitle:0KiB other streams:0KiB global headers:0KiB muxing overhead: 0.008119%\n",
      "size=     938KiB time=00:00:30.02 bitrate= 256.0kbits/s speed=4.65e+03x    \n",
      "ffmpeg version 7.1 Copyright (c) 2000-2024 the FFmpeg developers\n",
      "  built with clang version 17.0.6\n",
      "  configuration: --prefix=/opt/homebrew/Caskroom/miniconda/base --cc=arm64-apple-darwin20.0.0-clang --cxx=arm64-apple-darwin20.0.0-clang++ --nm=arm64-apple-darwin20.0.0-nm --ar=arm64-apple-darwin20.0.0-ar --disable-doc --enable-openssl --enable-demuxer=dash --enable-hardcoded-tables --enable-libfreetype --enable-libharfbuzz --enable-libfontconfig --enable-libopenh264 --enable-libdav1d --enable-cross-compile --arch=arm64 --target-os=darwin --cross-prefix=arm64-apple-darwin20.0.0- --host-cc=/Users/runner/miniforge3/conda-bld/ffmpeg_1728332276747/_build_env/bin/x86_64-apple-darwin13.4.0-clang --enable-neon --disable-gnutls --enable-libmp3lame --enable-libvpx --enable-libass --enable-pthreads --enable-libopenvino --enable-gpl --enable-libx264 --enable-libx265 --enable-libaom --enable-libsvtav1 --enable-libxml2 --enable-pic --enable-shared --disable-static --enable-version3 --enable-zlib --enable-libopus --pkg-config=/Users/runner/miniforge3/conda-bld/ffmpeg_1728332276747/_build_env/bin/pkg-config\n",
      "  libavutil      59. 39.100 / 59. 39.100\n",
      "  libavcodec     61. 19.100 / 61. 19.100\n",
      "  libavformat    61.  7.100 / 61.  7.100\n",
      "  libavdevice    61.  3.100 / 61.  3.100\n",
      "  libavfilter    10.  4.100 / 10.  4.100\n",
      "  libswscale      8.  3.100 /  8.  3.100\n",
      "  libswresample   5.  3.100 /  5.  3.100\n",
      "  libpostproc    58.  3.100 / 58.  3.100\n",
      "Input #0, flac, from '/Users/jon/NTNU Dropbox/WiseSync/NAS/Datasets/ms_swift_taiwan_asr/RLHF/Audio/jin-jin-style/error005.flac':\n",
      "  Metadata:\n",
      "    major_brand     : mp42\n",
      "    minor_version   : 1\n",
      "    compatible_brands: isommp41mp42\n",
      "    encoder         : Lavf61.7.100\n",
      "  Duration: 00:00:30.02, start: 0.000000, bitrate: 296 kb/s\n",
      "  Stream #0:0: Audio: flac, 16000 Hz, mono, s32 (24 bit)\n",
      "Stream mapping:\n",
      "  Stream #0:0 -> #0:0 (flac (native) -> pcm_s16le (native))\n",
      "Press [q] to stop, [?] for help\n",
      "Output #0, wav, to '/Users/jon/NTNU Dropbox/WiseSync/NAS/Datasets/ms_swift_taiwan_asr/RLHF/Audio/jin-jin-style/wave/error005.wav':\n",
      "  Metadata:\n",
      "    major_brand     : mp42\n",
      "    minor_version   : 1\n",
      "    compatible_brands: isommp41mp42\n",
      "    ISFT            : Lavf61.7.100\n",
      "  Stream #0:0: Audio: pcm_s16le ([1][0][0][0] / 0x0001), 16000 Hz, mono, s16, 256 kb/s\n",
      "      Metadata:\n",
      "        encoder         : Lavc61.19.100 pcm_s16le\n",
      "[out#0/wav @ 0x14de1bf40] video:0KiB audio:938KiB subtitle:0KiB other streams:0KiB global headers:0KiB muxing overhead: 0.008119%\n",
      "size=     938KiB time=00:00:30.02 bitrate= 256.0kbits/s speed=4.68e+03x    \n",
      "ffmpeg version 7.1 Copyright (c) 2000-2024 the FFmpeg developers\n",
      "  built with clang version 17.0.6\n",
      "  configuration: --prefix=/opt/homebrew/Caskroom/miniconda/base --cc=arm64-apple-darwin20.0.0-clang --cxx=arm64-apple-darwin20.0.0-clang++ --nm=arm64-apple-darwin20.0.0-nm --ar=arm64-apple-darwin20.0.0-ar --disable-doc --enable-openssl --enable-demuxer=dash --enable-hardcoded-tables --enable-libfreetype --enable-libharfbuzz --enable-libfontconfig --enable-libopenh264 --enable-libdav1d --enable-cross-compile --arch=arm64 --target-os=darwin --cross-prefix=arm64-apple-darwin20.0.0- --host-cc=/Users/runner/miniforge3/conda-bld/ffmpeg_1728332276747/_build_env/bin/x86_64-apple-darwin13.4.0-clang --enable-neon --disable-gnutls --enable-libmp3lame --enable-libvpx --enable-libass --enable-pthreads --enable-libopenvino --enable-gpl --enable-libx264 --enable-libx265 --enable-libaom --enable-libsvtav1 --enable-libxml2 --enable-pic --enable-shared --disable-static --enable-version3 --enable-zlib --enable-libopus --pkg-config=/Users/runner/miniforge3/conda-bld/ffmpeg_1728332276747/_build_env/bin/pkg-config\n",
      "  libavutil      59. 39.100 / 59. 39.100\n",
      "  libavcodec     61. 19.100 / 61. 19.100\n",
      "  libavformat    61.  7.100 / 61.  7.100\n",
      "  libavdevice    61.  3.100 / 61.  3.100\n",
      "  libavfilter    10.  4.100 / 10.  4.100\n",
      "  libswscale      8.  3.100 /  8.  3.100\n",
      "  libswresample   5.  3.100 /  5.  3.100\n",
      "  libpostproc    58.  3.100 / 58.  3.100\n",
      "Input #0, flac, from '/Users/jon/NTNU Dropbox/WiseSync/NAS/Datasets/ms_swift_taiwan_asr/RLHF/Audio/jin-jin-style/error006.flac':\n",
      "  Metadata:\n",
      "    major_brand     : mp42\n",
      "    minor_version   : 1\n",
      "    compatible_brands: isommp41mp42\n",
      "    encoder         : Lavf61.7.100\n",
      "  Duration: 00:00:29.95, start: 0.000000, bitrate: 297 kb/s\n",
      "  Stream #0:0: Audio: flac, 16000 Hz, mono, s32 (24 bit)\n",
      "Stream mapping:\n",
      "  Stream #0:0 -> #0:0 (flac (native) -> pcm_s16le (native))\n",
      "Press [q] to stop, [?] for help\n",
      "Output #0, wav, to '/Users/jon/NTNU Dropbox/WiseSync/NAS/Datasets/ms_swift_taiwan_asr/RLHF/Audio/jin-jin-style/wave/error006.wav':\n",
      "  Metadata:\n",
      "    major_brand     : mp42\n",
      "    minor_version   : 1\n",
      "    compatible_brands: isommp41mp42\n",
      "    ISFT            : Lavf61.7.100\n",
      "  Stream #0:0: Audio: pcm_s16le ([1][0][0][0] / 0x0001), 16000 Hz, mono, s16, 256 kb/s\n",
      "      Metadata:\n",
      "        encoder         : Lavc61.19.100 pcm_s16le\n",
      "[out#0/wav @ 0x11cf04e30] video:0KiB audio:936KiB subtitle:0KiB other streams:0KiB global headers:0KiB muxing overhead: 0.008138%\n",
      "size=     936KiB time=00:00:29.95 bitrate= 256.0kbits/s speed=5.53e+03x    \n",
      "ffmpeg version 7.1 Copyright (c) 2000-2024 the FFmpeg developers\n",
      "  built with clang version 17.0.6\n",
      "  configuration: --prefix=/opt/homebrew/Caskroom/miniconda/base --cc=arm64-apple-darwin20.0.0-clang --cxx=arm64-apple-darwin20.0.0-clang++ --nm=arm64-apple-darwin20.0.0-nm --ar=arm64-apple-darwin20.0.0-ar --disable-doc --enable-openssl --enable-demuxer=dash --enable-hardcoded-tables --enable-libfreetype --enable-libharfbuzz --enable-libfontconfig --enable-libopenh264 --enable-libdav1d --enable-cross-compile --arch=arm64 --target-os=darwin --cross-prefix=arm64-apple-darwin20.0.0- --host-cc=/Users/runner/miniforge3/conda-bld/ffmpeg_1728332276747/_build_env/bin/x86_64-apple-darwin13.4.0-clang --enable-neon --disable-gnutls --enable-libmp3lame --enable-libvpx --enable-libass --enable-pthreads --enable-libopenvino --enable-gpl --enable-libx264 --enable-libx265 --enable-libaom --enable-libsvtav1 --enable-libxml2 --enable-pic --enable-shared --disable-static --enable-version3 --enable-zlib --enable-libopus --pkg-config=/Users/runner/miniforge3/conda-bld/ffmpeg_1728332276747/_build_env/bin/pkg-config\n",
      "  libavutil      59. 39.100 / 59. 39.100\n",
      "  libavcodec     61. 19.100 / 61. 19.100\n",
      "  libavformat    61.  7.100 / 61.  7.100\n",
      "  libavdevice    61.  3.100 / 61.  3.100\n",
      "  libavfilter    10.  4.100 / 10.  4.100\n",
      "  libswscale      8.  3.100 /  8.  3.100\n",
      "  libswresample   5.  3.100 /  5.  3.100\n",
      "  libpostproc    58.  3.100 / 58.  3.100\n",
      "Input #0, flac, from '/Users/jon/NTNU Dropbox/WiseSync/NAS/Datasets/ms_swift_taiwan_asr/RLHF/Audio/jin-jin-style/error007.flac':\n",
      "  Metadata:\n",
      "    major_brand     : mp42\n",
      "    minor_version   : 1\n",
      "    compatible_brands: isommp41mp42\n",
      "    encoder         : Lavf61.7.100\n",
      "  Duration: 00:00:30.02, start: 0.000000, bitrate: 310 kb/s\n",
      "  Stream #0:0: Audio: flac, 16000 Hz, mono, s32 (24 bit)\n",
      "Stream mapping:\n",
      "  Stream #0:0 -> #0:0 (flac (native) -> pcm_s16le (native))\n",
      "Press [q] to stop, [?] for help\n",
      "Output #0, wav, to '/Users/jon/NTNU Dropbox/WiseSync/NAS/Datasets/ms_swift_taiwan_asr/RLHF/Audio/jin-jin-style/wave/error007.wav':\n",
      "  Metadata:\n",
      "    major_brand     : mp42\n",
      "    minor_version   : 1\n",
      "    compatible_brands: isommp41mp42\n",
      "    ISFT            : Lavf61.7.100\n",
      "  Stream #0:0: Audio: pcm_s16le ([1][0][0][0] / 0x0001), 16000 Hz, mono, s16, 256 kb/s\n",
      "      Metadata:\n",
      "        encoder         : Lavc61.19.100 pcm_s16le\n",
      "[out#0/wav @ 0x126e1bf40] video:0KiB audio:938KiB subtitle:0KiB other streams:0KiB global headers:0KiB muxing overhead: 0.008119%\n",
      "size=     938KiB time=00:00:30.02 bitrate= 256.0kbits/s speed=4.93e+03x    \n",
      "ffmpeg version 7.1 Copyright (c) 2000-2024 the FFmpeg developers\n",
      "  built with clang version 17.0.6\n",
      "  configuration: --prefix=/opt/homebrew/Caskroom/miniconda/base --cc=arm64-apple-darwin20.0.0-clang --cxx=arm64-apple-darwin20.0.0-clang++ --nm=arm64-apple-darwin20.0.0-nm --ar=arm64-apple-darwin20.0.0-ar --disable-doc --enable-openssl --enable-demuxer=dash --enable-hardcoded-tables --enable-libfreetype --enable-libharfbuzz --enable-libfontconfig --enable-libopenh264 --enable-libdav1d --enable-cross-compile --arch=arm64 --target-os=darwin --cross-prefix=arm64-apple-darwin20.0.0- --host-cc=/Users/runner/miniforge3/conda-bld/ffmpeg_1728332276747/_build_env/bin/x86_64-apple-darwin13.4.0-clang --enable-neon --disable-gnutls --enable-libmp3lame --enable-libvpx --enable-libass --enable-pthreads --enable-libopenvino --enable-gpl --enable-libx264 --enable-libx265 --enable-libaom --enable-libsvtav1 --enable-libxml2 --enable-pic --enable-shared --disable-static --enable-version3 --enable-zlib --enable-libopus --pkg-config=/Users/runner/miniforge3/conda-bld/ffmpeg_1728332276747/_build_env/bin/pkg-config\n",
      "  libavutil      59. 39.100 / 59. 39.100\n",
      "  libavcodec     61. 19.100 / 61. 19.100\n",
      "  libavformat    61.  7.100 / 61.  7.100\n",
      "  libavdevice    61.  3.100 / 61.  3.100\n",
      "  libavfilter    10.  4.100 / 10.  4.100\n",
      "  libswscale      8.  3.100 /  8.  3.100\n",
      "  libswresample   5.  3.100 /  5.  3.100\n",
      "  libpostproc    58.  3.100 / 58.  3.100\n",
      "Input #0, flac, from '/Users/jon/NTNU Dropbox/WiseSync/NAS/Datasets/ms_swift_taiwan_asr/RLHF/Audio/jin-jin-style/error008.flac':\n",
      "  Metadata:\n",
      "    major_brand     : mp42\n",
      "    minor_version   : 1\n",
      "    compatible_brands: isommp41mp42\n",
      "    encoder         : Lavf61.7.100\n",
      "  Duration: 00:00:27.86, start: 0.000000, bitrate: 297 kb/s\n",
      "  Stream #0:0: Audio: flac, 16000 Hz, mono, s32 (24 bit)\n",
      "Stream mapping:\n",
      "  Stream #0:0 -> #0:0 (flac (native) -> pcm_s16le (native))\n",
      "Press [q] to stop, [?] for help\n",
      "Output #0, wav, to '/Users/jon/NTNU Dropbox/WiseSync/NAS/Datasets/ms_swift_taiwan_asr/RLHF/Audio/jin-jin-style/wave/error008.wav':\n",
      "  Metadata:\n",
      "    major_brand     : mp42\n",
      "    minor_version   : 1\n",
      "    compatible_brands: isommp41mp42\n",
      "    ISFT            : Lavf61.7.100\n",
      "  Stream #0:0: Audio: pcm_s16le ([1][0][0][0] / 0x0001), 16000 Hz, mono, s16, 256 kb/s\n",
      "      Metadata:\n",
      "        encoder         : Lavc61.19.100 pcm_s16le\n",
      "[out#0/wav @ 0x12d704e30] video:0KiB audio:870KiB subtitle:0KiB other streams:0KiB global headers:0KiB muxing overhead: 0.008751%\n",
      "size=     871KiB time=00:00:27.85 bitrate= 256.0kbits/s speed=4.84e+03x    \n"
     ]
    }
   ],
   "source": [
    "import os\n",
    "import subprocess\n",
    "\n",
    "\n",
    "\n",
    "def process_audio_file(wav_path, output_dir, frame_rate=30):\n",
    "    # 获取文件名（不含扩展名）和扩展名\n",
    "    base_name = os.path.basename(wav_path)\n",
    "    file_name, _ = os.path.splitext(base_name)\n",
    "    # 打开日志文件\n",
    "    out_file_path = os.path.join(output_dir, f\"{file_name}.wav\")\n",
    "     # 使用 ffmpeg 將每個文件轉換為 WAV 格式\n",
    "    subprocess.run(['ffmpeg', '-i', wav_path, \"-acodec\", \"pcm_s16le\", \"-ac\", \"1\", \"-ar\", \"16000\", out_file_path])\n",
    "\n",
    "# 在 Jupyter Notebook 中指定输入和输出目录\n",
    "input_dir = '/Users/jon/NTNU Dropbox/WiseSync/NAS/Datasets/ms_swift_taiwan_asr/RLHF/Audio/jin-jin-style'  # 替换为您的输入目录\n",
    "output_dir = os.path.join(input_dir, 'wave')       # 替换为您的输出目录\n",
    "if not os.path.exists(output_dir):\n",
    "    os.makedirs(output_dir)\n",
    "frame_rate = 10  # 可以根据需要调整帧率\n",
    "\n",
    "# 遍历输入目录中的所有 FLAC 文件\n",
    "flac_files = [f for f in os.listdir(input_dir) if f.lower().endswith('.flac')]\n",
    "flac_files.sort()\n",
    "if not flac_files:\n",
    "    print('在指定的输入目录中未找到任何 FLAC 文件。')\n",
    "else:\n",
    "    for flac_file in flac_files:\n",
    "        wav_path = os.path.join(input_dir, flac_file)\n",
    "        process_audio_file(wav_path, output_dir, frame_rate)"
   ]
  },
  {
   "cell_type": "code",
   "execution_count": null,
   "metadata": {},
   "outputs": [],
   "source": []
  }
 ],
 "metadata": {
  "kernelspec": {
   "display_name": "base",
   "language": "python",
   "name": "python3"
  },
  "language_info": {
   "codemirror_mode": {
    "name": "ipython",
    "version": 3
   },
   "file_extension": ".py",
   "mimetype": "text/x-python",
   "name": "python",
   "nbconvert_exporter": "python",
   "pygments_lexer": "ipython3",
   "version": "3.12.7"
  }
 },
 "nbformat": 4,
 "nbformat_minor": 2
}
